<svg id="Layer_1" data-name="Layer 1" xmlns="http://www.w3.org/2000/svg" viewBox="0 0 418.238 397.268"><defs><style>.cls-1{fill:#3c839d;}.cls-2{fill:#434a56;}</style></defs><path class="cls-1" d="M312.722,192.832c-5.911-.136-11.824-.226-17.736-.33,3.373-3.033,6.851-5.941,10.473-8.688,2.321-1.763.042-5.745-2.314-3.958a178.347,178.347,0,0,0-14.766,12.522c-4.757-.074-9.515-.125-14.272-.179,6.845-6.5,14.11-13.636,22.562-16.8,2.742-1.026,1.555-5.456-1.218-4.419a46.075,46.075,0,0,0-11.185,6.318,2.51,2.51,0,0,0-.3-.037c-4.763-.129-9.51-.514-14.265-.771,2.406-2.165,4.882-4.278,7.467-6.318,2.318-1.831-.949-5.051-3.24-3.24C264.353,174.5,256.2,182.959,248,191.963c-.011.011-.019.026-.03.038q-6.148-.023-12.3-.019c3.9-4.993,6.832-10.686,10.587-15.845a1.986,1.986,0,0,0,.377-.532l.018-.026a1.845,1.845,0,0,0-.41-2.75,2.2,2.2,0,0,0-1.568-.7c-6.795-.287-13.426-2.194-20.189-2.61q5.075-5.077,10.17-10.138c13.093,1.746,25.131,2.359,38.359-.027,2.905-.523,1.671-4.939-1.218-4.418-3.053.55-6.017.914-8.945,1.154,4.143-4.008,8.051-8.259,12.406-12.043,2.755-.572,5.521-1.166,8.313-1.765,2.889-.619,1.665-5.036-1.218-4.419-10.48,2.249-20.585,4.492-31.21,5.282,3.411-3.337,6.813-6.683,10.238-10a2.192,2.192,0,0,0,.937-.045l19.224-5.492c2.836-.809,1.63-5.231-1.218-4.417l-12.239,3.494c4.055-3.913,8.1-7.838,12.175-11.73,2.14-2.046-1.1-5.281-3.24-3.24-4.277,4.084-8.523,8.2-12.778,12.311.238-4.521.639-9.031,1.258-13.525.4-2.889-4.018-4.135-4.419-1.218a176.958,176.958,0,0,0-1.6,19.325q-5.123,4.962-10.212,9.958c.259-9.427.375-19.579,4.055-27.8,1.2-2.672-2.753-5-3.957-2.312a46.773,46.773,0,0,0-3.351,11.939,2.323,2.323,0,0,0-.227.18c-3.3,3.155-6.651,6.262-9.983,9.387q.512-6.567,1.306-13.164c.351-2.931-4.234-2.9-4.583,0a247.394,247.394,0,0,0-1.9,40.074c0,.014,0,.03.006.046q-4.32,4.287-8.62,8.594c-.613-6.067-2.209-11.994-3.147-18.056a1.809,1.809,0,0,0-.213-1.248,1.87,1.87,0,0,0-2.669-1.34,2.4,2.4,0,0,0-1.121.485c-4.661,3.629-9.317,7.177-13.6,11.183q0-5.9-.018-11.792c.01-.01.025-.017.037-.029a248.313,248.313,0,0,0,27.213-29.755c1.8-2.3-1.415-5.563-3.24-3.24q-4.178,5.31-8.54,10.372c-.087-4.776-.165-9.553-.264-14.327a45.093,45.093,0,0,0,5.811-10.5c1.039-2.773-3.391-3.961-4.418-1.218-3.163,8.452-10.3,15.717-16.8,22.562-.054-4.757-.1-9.514-.179-14.272A177.84,177.84,0,0,0,213.4,89.562c1.787-2.356-2.195-4.635-3.956-2.313-2.748,3.623-5.657,7.1-8.69,10.472-.1-5.911-.194-11.824-.33-17.736-.067-2.95-4.649-2.956-4.582,0,.13,5.635.214,11.272.315,16.907q-3.1-5.577-6.2-11.152c-1.436-2.584-5.394-.273-3.957,2.312q4.856,8.737,9.712,17.475a2.091,2.091,0,0,0,.617.676c.071,4.77.112,9.54.163,14.311-6.96-8.072-12.524-16.826-18.349-25.832-1.6-2.471-5.567-.176-3.956,2.312,1.692,2.616,3.362,5.208,5.049,7.767a2.212,2.212,0,0,0-.151,1c.315,4.575.07,9.149.027,13.722-2.542-3.206-4.992-6.528-7.381-10-1.663-2.416-5.636-.129-3.956,2.314,8.362,12.147,17.4,22.661,28.9,31.789q.029,7.146.022,14.293c-5.071-4.783-10.937-8.684-16.054-13.434a2.192,2.192,0,0,0-1.65-.621,1.8,1.8,0,0,0-2.18,1.632l-.009.053a2.063,2.063,0,0,0-.108.693c-1.028,6.633-3.069,13.1-3.826,19.739q-4.329-4.331-8.671-8.645c0-.016.006-.032.006-.047a249.923,249.923,0,0,0-1.154-40.463c-.34-2.9-4.925-2.932-4.583,0,.553,4.719.925,9.415,1.162,14.107-3.608-3.4-7.236-6.775-10.819-10.2a46.79,46.79,0,0,0-3.339-11.86c-1.205-2.693-5.153-.361-3.957,2.313,3.678,8.222,3.8,18.374,4.054,27.8q-5.1-4.984-10.211-9.958a177,177,0,0,0-1.595-19.325c-.4-2.916-4.817-1.67-4.419,1.218.619,4.495,1.02,9,1.258,13.525-4.255-4.108-8.5-8.226-12.779-12.311-2.135-2.041-5.381,1.195-3.24,3.24,4.075,3.892,8.121,7.818,12.176,11.732q-6.118-1.749-12.239-3.5c-2.848-.814-4.054,3.607-1.218,4.417l19.224,5.491a2.176,2.176,0,0,0,.937.045q5.136,4.983,10.238,10c-10.625-.791-20.73-3.033-31.212-5.283-2.881-.617-4.107,3.8-1.218,4.419,2.261.486,4.5.965,6.734,1.434.022.019.035.04.057.059,4.745,4.052,9.285,8.337,13.937,12.5a105.556,105.556,0,0,1-12.954-1.459c-2.888-.516-4.123,3.9-1.218,4.417,14.4,2.572,28.025,2.033,42.366.157q4.995,4.958,9.968,9.939c-7.073,0-14.135,1-21.2,1.184a2.175,2.175,0,0,0-1.662.76,1.843,1.843,0,0,0-.316,2.687l.049.072a2.067,2.067,0,0,0,.311.433c3.983,5.507,6.868,11.751,10.959,17.13q-6.181,0-12.362.019c-.011-.012-.019-.027-.03-.038A249.154,249.154,0,0,0,116.538,164.2c-2.292-1.81-5.558,1.409-3.24,3.24,3.745,2.959,7.342,6.033,10.84,9.2-4.926.051-9.853.074-14.779.169a2.378,2.378,0,0,0-.336.039,45.2,45.2,0,0,0-10.57-5.864c-2.774-1.037-3.96,3.393-1.218,4.419,8.452,3.162,15.717,10.3,22.562,16.8-4.757.054-9.515.1-14.272.179a178.047,178.047,0,0,0-14.768-12.522c-2.354-1.787-4.633,2.195-2.312,3.958,3.622,2.747,7.1,5.655,10.473,8.688-5.913.1-11.825.194-17.736.33-2.95.067-2.957,4.649,0,4.582,5.635-.13,11.271-.214,16.906-.315q-5.576,3.1-11.153,6.2c-2.582,1.435-.271,5.393,2.314,3.956l17.475-9.711a2.111,2.111,0,0,0,.676-.617c4.77-.072,9.54-.113,14.311-.164-8.073,6.962-16.826,12.526-25.833,18.349-2.471,1.6-.177,5.567,2.314,3.957q2.559-1.658,5.084-3.3c.071,0,.135.01.21,0q8.176-.677,16.355-1.333c-2.289,1.736-4.639,3.438-7.087,5.119-2.419,1.661-.132,5.635,2.312,3.958,11.472-7.878,21.14-16.116,29.725-26.935q7.2-.029,14.4-.022c-4.771,5.331-8.359,11.677-13.13,17.023a1.826,1.826,0,0,0-.922,1.319,2.435,2.435,0,0,0,2.375,3.11c6.491.863,12.915,2.167,19.427,2.575q-4.229,4.23-8.445,8.472c-.015,0-.031,0-.047-.006-13.035-.595-25.76-.648-38.742.869-2.9.339-2.931,4.925,0,4.582,4.176-.488,8.324-.8,12.466-1q-5.234,5.484-10.465,10.967a46.542,46.542,0,0,0-11.673,3.311c-2.7,1.2-.362,5.152,2.312,3.956,8.222-3.678,18.374-3.8,27.8-4.054q-4.985,5.1-9.957,10.212a177.225,177.225,0,0,0-19.325,1.594c-2.917.4-1.67,4.817,1.218,4.419,4.494-.619,9-1.018,13.524-1.256q-6.162,6.381-12.311,12.778c-2.04,2.135,1.2,5.38,3.24,3.24,3.893-4.076,7.818-8.122,11.732-12.177q-1.749,6.12-3.5,12.239c-.812,2.848,3.609,4.056,4.419,1.219q2.743-9.612,5.49-19.225a2.156,2.156,0,0,0,.045-.936q4.984-5.136,10-10.237c-.791,10.623-3.033,20.73-5.281,31.21-.619,2.881,3.8,4.107,4.418,1.218.485-2.258.962-4.494,1.431-6.726a2.6,2.6,0,0,0,.235-.225c4.027-4.718,8.276-9.237,12.405-13.865a97.666,97.666,0,0,1-1.351,11.594c-.517,2.888,3.9,4.122,4.419,1.218,2.5-13.986,1.816-27.037-.032-40.92q5.218-5.261,10.462-10.5c1.268,6.546,5.354,12.337,6,19.077a2.237,2.237,0,0,0,.862,2l.039.032a2.387,2.387,0,0,0,1.933.518,2.041,2.041,0,0,0,1.48-.848c4.595-3.953,10.223-6.363,14.939-10.08q0,7.284-.023,14.569c-11.01,8.33-20.863,16.537-28.9,28.065-1.694,2.432,2.28,4.719,3.956,2.314a84.6,84.6,0,0,1,7.242-8.984c-.4,6.319-.646,12.645-1.141,18.956a2.293,2.293,0,0,0,.043.648q-1.84,2.823-3.688,5.684c-1.611,2.488,2.359,4.783,3.956,2.312,5.825-9,11.389-17.758,18.349-25.832-.051,4.771-.092,9.541-.163,14.312a2.077,2.077,0,0,0-.617.675q-4.857,8.738-9.712,17.475c-1.437,2.585,2.521,4.9,3.957,2.313q3.1-5.577,6.2-11.153c-.1,5.637-.185,11.272-.315,16.908-.067,2.955,4.515,2.949,4.582,0,.136-5.913.226-11.824.33-17.737,3.033,3.373,5.942,6.851,8.69,10.472,1.761,2.322,5.743.043,3.956-2.313a177.84,177.84,0,0,0-12.522-14.767c.074-4.758.125-9.515.179-14.272,6.5,6.845,13.636,14.11,16.8,22.564,1.027,2.741,5.457,1.553,4.418-1.218a45.386,45.386,0,0,0-5.985-10.736c.108-4.7.258-9.406.392-14.11q3.186,3.742,6.263,7.655c1.825,2.322,5.043-.946,3.24-3.24A222.435,222.435,0,0,0,201.3,246.8c-.012-.01-.027-.019-.037-.029q.023-6.386.019-12.768c5.477,3.491,11.949,5.256,17.392,8.979a2.07,2.07,0,0,0,.419.283c.02.015.041.026.061.041a1.888,1.888,0,0,0,2.735-.381,2.175,2.175,0,0,0,.712-1.6c.2-6,1.146-11.931,1.27-17.91q5.034,5.033,10.049,10.082c-1.6,13.837-.738,26.676,1.814,40.481.535,2.9,4.951,1.669,4.417-1.218-.61-3.308-1.119-6.552-1.523-9.77,3.7,4.122,7.421,8.231,10.9,12.54.477,2.27.962,4.546,1.455,6.842.621,2.888,5.038,1.663,4.419-1.218-2.249-10.481-4.491-20.587-5.281-31.21q5.006,5.114,10.005,10.236a2.16,2.16,0,0,0,.045.937q2.745,9.612,5.49,19.224c.809,2.838,5.231,1.63,4.419-1.218q-1.749-6.119-3.5-12.24c3.913,4.056,7.838,8.1,11.732,12.177,2.044,2.14,5.28-1.1,3.24-3.24-4.086-4.277-8.2-8.522-12.311-12.778,4.521.238,9.029.638,13.523,1.256,2.889.4,4.135-4.016,1.219-4.417a176.977,176.977,0,0,0-19.326-1.6q-4.962-5.121-9.956-10.212c9.427.259,19.579.377,27.8,4.054,2.672,1.2,5-2.751,2.312-3.956a46.288,46.288,0,0,0-11.5-3.284c-.035-.042-.06-.086-.1-.127q-5.2-5.429-10.406-10.859c4.094.2,8.195.506,12.323.989,2.931.343,2.9-4.244,0-4.582-12.979-1.517-25.7-1.463-38.737-.87a.362.362,0,0,1-.046.006q-4.451-4.482-8.917-8.944c6.364-1.24,12.321-4.244,18.779-5.4a2.03,2.03,0,0,0,.546-.1c.027,0,.055-.012.083-.016a1.838,1.838,0,0,0,1.641-2.166,2.184,2.184,0,0,0-.63-1.663c-4.454-4.744-8.377-9.967-12.928-14.6q7.094,0,14.19.022c8.563,10.806,18.169,19.066,29.623,26.935,2.443,1.677,4.732-2.3,2.313-3.958-2.538-1.744-4.973-3.512-7.338-5.318q8.329.676,16.654,1.356,2.656,1.73,5.348,3.469c2.491,1.61,4.785-2.358,2.314-3.957-9.007-5.823-17.76-11.387-25.833-18.349,4.771.051,9.541.092,14.311.164a2.1,2.1,0,0,0,.676.617l17.475,9.711c2.585,1.437,4.9-2.521,2.314-3.956q-5.579-3.1-11.153-6.2c5.635.1,11.271.185,16.906.315,2.957.067,2.95-4.515,0-4.582M265.01,180.877c4.64.127,9.268.5,13.9.75-3.947,3.428-7.7,7.12-11.426,10.5-4.438-.041-8.875-.1-13.315-.123,3.548-3.832,7.127-7.548,10.841-11.132M222.085,192a67.784,67.784,0,0,0,6.342-7.376,2.054,2.054,0,0,0,.384-.492c.017-.025.037-.048.056-.074a1.856,1.856,0,0,0-.293-2.661,2.153,2.153,0,0,0-1.685-.787c-4.432-.09-8.865-.091-13.3-.135,2.115-2.137,4.222-4.285,6.344-6.416,0,0,.011,0,.017,0,6.957-.423,13.729,1.446,20.6,2.286-3.524,5.326-6.519,11-10.95,15.625q-3.759.009-7.519.03m-34.562,27.984c-.327-3.965-.786-7.921-.919-11.9a2.291,2.291,0,0,0-.075-.486c3.328-3.281,6.642-6.577,9.985-9.844.051,4.672.065,9.345.1,14.017a2.371,2.371,0,0,0-.395.294c-2.853,2.688-5.784,5.291-8.693,7.918m-15.8-34.781c4.485.071,8.969.277,13.454.2a2.265,2.265,0,0,0,.49-.071q3.357,3.405,6.712,6.808c-4.6-.047-9.205-.069-13.809-.1a61.9,61.9,0,0,1-6.847-6.845m15.506-14.568c2.992,2.941,5.967,5.9,8.991,8.808a2.085,2.085,0,0,0,.395.3c-.023,3.369-.038,6.736-.071,10.1q-4.653-4.749-9.337-9.468a60.547,60.547,0,0,1,.022-9.739m28.113,21.413c-4.417.026-8.833.048-13.249.092q3.537-3.607,7.095-7.194a2.173,2.173,0,0,0,.487.072c4.188.084,8.378.093,12.566.128a61.933,61.933,0,0,1-6.9,6.9m-7.672-12.091q-3.262,3.3-6.521,6.614.042-4.642.066-9.285a72.779,72.779,0,0,1,7.364-7.688c-.312,3.453-.564,6.909-.909,10.359m-27.024,17.086a2.361,2.361,0,0,0,.294-.4c3.367.023,6.736.038,10.1.071q-4.749,4.653-9.468,9.337a60.432,60.432,0,0,1-9.739-.022c2.941-2.991,5.9-5.967,8.81-8.989m20.476,3.848q3.606,3.537,7.19,7.091a2.1,2.1,0,0,0-.068.492c-.024,3.847.468,7.671.732,11.5a51.2,51.2,0,0,1-7.762-6.024c-.028-4.354-.049-8.707-.092-13.062m2.289-4.178c3.186-.031,6.372-.045,9.559-.067a2.217,2.217,0,0,0,.3.4c3.132,3.221,6.445,6.258,9.671,9.384a60.26,60.26,0,0,1-9.66.016q-4.929-4.867-9.866-9.73M255.768,156.4a132.762,132.762,0,0,1-17.051-1.062c2.5-2.477,5.03-4.932,7.541-7.4a1.824,1.824,0,0,0,.435.037,140.633,140.633,0,0,0,20.12-2.289c-3.65,3.605-7.174,7.341-11.045,10.715m-20.4-19.745c.019-.016.038-.027.056-.044,3.248-3.1,6.541-6.161,9.819-9.233-.4,5.309-.449,10.679-.7,15.828q-4.725,4.635-9.446,9.271-.155-7.951.27-15.822m-20.5,14.461c1.138,6.239,2.732,12.381,2.792,18.742q-2.492,2.5-4.979,5.015c.253-3.309.5-6.617.95-9.908a2.411,2.411,0,0,0-.2-1.36,2.023,2.023,0,0,0-2.737-1.484,1.667,1.667,0,0,0-1.26.917,68.437,68.437,0,0,0-8.18,7.386q.015-3.72.028-7.44a120.006,120.006,0,0,1,13.583-11.868m-2.884-37.724c.082,4.54.157,9.078.252,13.617a1.478,1.478,0,0,0,.018.149q-5.293,5.827-11.007,11.307c-.023-4.413-.082-8.826-.123-13.24,3.5-3.852,7.334-7.735,10.86-11.833m-28.177,11.716c-.254-4.531-.011-9.059.013-13.589a138.775,138.775,0,0,0,12.411,15.554,1.852,1.852,0,0,0,.333.28c.029,3.474.08,6.946.1,10.419a119.291,119.291,0,0,1-12.856-12.664m-3.235,25.352c5.467,4.561,11.391,8.6,16.121,13.969,0,0,.008.006.011.01-.007,3.009-.036,6.017-.051,9.023-3.164-3.1-6.3-6.233-9.5-9.306a2.145,2.145,0,0,0-1.752-.637,1.837,1.837,0,0,0-2.078,1.648c-.006.037-.01.073-.016.111a2.121,2.121,0,0,0-.083.572,66.747,66.747,0,0,0-.766,9.719q-2.646-2.67-5.294-5.335c.117-6.725,2.1-13.192,3.406-19.774M149.6,127.742c3.278,3.08,6.567,6.149,9.819,9.256a2.465,2.465,0,0,0,.448.34c.119,5.173.077,10.352-.088,15.562-3.148-3.115-6.319-6.205-9.479-9.306-.251-5.157-.3-10.536-.7-15.852m-10.478,29.094c-4.159-3.564-8.168-7.3-12.232-10.969a143.682,143.682,0,0,0,21.258,2.494,1.806,1.806,0,0,0,.433-.036c2.508,2.465,5.03,4.916,7.529,7.387a154.334,154.334,0,0,1-16.988,1.124m14.021,18.446c7.246-.453,14.489-1.385,21.745-.833.006,0,.011,0,.016,0,2.107,2.117,4.2,4.249,6.3,6.371-4.731-.058-9.462-.284-14.194-.209a2.133,2.133,0,0,0-1.7.8,1.853,1.853,0,0,0-.278,2.645c.022.029.044.055.066.084a1.991,1.991,0,0,0,.358.46,67.778,67.778,0,0,0,6.359,7.4q-3.749-.016-7.5-.03c-4.624-4.894-7.555-11.03-11.176-16.689m-38.495,6.046c4.783-.048,9.565-.075,14.347-.164,3.659,3.506,7.213,7.124,10.7,10.845-4.428.025-8.856.082-13.283.123-3.832-3.482-7.7-7.293-11.768-10.8m11.534,28.015q-7.556.621-15.114,1.231a143.955,143.955,0,0,0,17.195-13.548,2.017,2.017,0,0,0,.281-.332c3.471-.031,6.943-.082,10.415-.1a109.869,109.869,0,0,1-12.777,12.75m25.453,4.686c4.615-5.873,8.373-12.472,13.984-17.465a.106.106,0,0,0,.01-.012c3.008.007,6.016.037,9.024.051-3.1,3.164-6.233,6.3-9.307,9.5a2.144,2.144,0,0,0-.637,1.752,1.836,1.836,0,0,0,1.648,2.077l.111.016a2.045,2.045,0,0,0,.572.083,66.458,66.458,0,0,0,9.719.766q-2.679,2.657-5.353,5.312c-6.655.074-13.2-1.073-19.771-2.079m-22.822,29.636q4.688-4.917,9.379-9.83a2.453,2.453,0,0,0,.386-.542c5.16-.094,10.324-.015,15.526.17-3.119,3.151-6.213,6.327-9.319,9.491-5.2.253-10.617.3-15.972.711m29.3,10.375c-3.593,4.2-7.358,8.247-11.057,12.355a143.809,143.809,0,0,0,2.5-21.287,1.923,1.923,0,0,0-.036-.435c2.468-2.512,4.923-5.037,7.4-7.542a150.923,150.923,0,0,1,1.19,16.909m17.532-35.69c2.19-2.18,4.4-4.345,6.594-6.52.317,4.251.829,8.491.989,12.752a2.038,2.038,0,0,0,.15,1.007,2.128,2.128,0,0,0,1.183,1.286,2.157,2.157,0,0,0,2.073.008,2.025,2.025,0,0,0,.8-.626c3.031-2.845,6.141-5.6,9.217-8.4.016,3.073.045,6.145.052,9.216l-.011.011c-4.295,4.7-10.2,7.249-15.356,10.851-1.759-6.6-5.881-12.638-5.692-19.57l0-.016m8.229,45.931a164.4,164.4,0,0,1,12.791-10.722c-.019,3.533-.068,7.066-.1,10.6a1.985,1.985,0,0,0-.333.28,142.786,142.786,0,0,0-13.362,16.928c.325-5.618.569-11.24,1.009-16.851a2.288,2.288,0,0,0-.006-.236m28.38.088c0,.046-.016.087-.016.135-.1,4.493-.245,8.984-.375,13.475-3.492-4.045-7.276-7.883-10.737-11.691.041-4.418.1-8.837.123-13.255,3.838,3.665,7.485,7.438,11,11.336m-11-44.269c2.862,2.249,5.985,4.173,9.015,6.257a1.906,1.906,0,0,0,2.587-.221,2.1,2.1,0,0,0,.861-1.757c.024-3.949-.5-7.872-.753-11.808,2.077,2.057,4.165,4.106,6.238,6.168l0,.016c.434,6.244-.474,12.409-.949,18.615-5.652-3.074-12.078-4.8-16.962-9.018-.006-2.75-.023-5.5-.035-8.252m36.64,35.183a113.264,113.264,0,0,1,.125-17.666c2.445,2.471,4.868,4.965,7.306,7.445a1.923,1.923,0,0,0-.036.435,142.5,142.5,0,0,0,2.417,20.826c-3.245-3.7-6.571-7.34-9.812-11.04m18.356-21.6q4.977,5.19,9.949,10.384c-5.41-.419-10.891-.467-16.143-.722-3.106-3.164-6.2-6.339-9.318-9.491,5.2-.185,10.358-.263,15.512-.171m-38.166-22.5a66.644,66.644,0,0,0,9.751-.771,2.031,2.031,0,0,0,.521-.076c.044-.007.086-.011.128-.019a1.831,1.831,0,0,0,1.65-2.049,2.129,2.129,0,0,0-.639-1.78c-3.3-3.393-6.792-6.585-10.179-9.888,2.986-.014,5.971-.044,8.957-.051a.106.106,0,0,0,.01.012c5.09,4.429,9.2,9.77,13.62,14.832-6.208,1.68-12.1,4.666-18.536,5.031q-2.637-2.625-5.283-5.241m49.354-2.035a110.245,110.245,0,0,1-12.5-12.558c3.473.019,6.945.07,10.419.1a2.017,2.017,0,0,0,.281.332,143.015,143.015,0,0,0,16.917,13.356q-7.562-.613-15.118-1.231"/><polygon class="cls-2" points="91.848 284.941 69.712 301.266 68.333 299.396 90.469 283.071 84.603 275.119 86.289 273.876 99.424 291.686 97.739 292.929 91.848 284.941"/><polygon class="cls-2" points="111.66 306.138 104.22 314.929 114.055 323.252 112.731 324.816 102.898 316.494 95.255 325.529 107.729 336.084 106.376 337.683 92.128 325.627 111.241 303.042 125.487 315.096 124.135 316.694 111.66 306.138"/><polygon class="cls-2" points="145.918 325.129 133.473 349.654 131.402 348.604 143.846 324.079 135.035 319.608 135.984 317.739 155.717 327.753 154.769 329.622 145.918 325.129"/><polygon class="cls-2" points="176.923 335.577 171.14 362.46 168.869 361.972 174.653 335.089 164.995 333.013 165.435 330.965 187.065 335.618 186.624 337.664 176.923 335.577"/><polygon class="cls-2" points="222.755 335.844 224.958 365.355 223.505 365.463 201.207 341.971 203.074 366.989 200.804 367.157 198.6 337.645 200.054 337.537 222.352 361.028 220.485 336.013 222.755 335.844"/><path class="cls-2" d="M271.107,350.066l-.023.2a3.415,3.415,0,0,1-1.7,1.309,3.567,3.567,0,0,1-2.419.023,6.813,6.813,0,0,1-2.631-1.989l-2.986-3.214-14.857,5.5-.352,7.7-2.262.838,1.633-32.163,1.367-.506,19.138,20.343c1.135,1.229,1.858,1.739,2.839,1.375a1.765,1.765,0,0,0,.942-.736l.186-.019Zm-11.34-5.316-12.3-13.164-.847,18.034Z"/><polygon class="cls-2" points="287.328 301.266 305.057 324.949 303.892 325.822 272.466 318.02 287.495 338.097 285.674 339.459 267.944 315.776 269.11 314.903 300.537 322.705 285.506 302.629 287.328 301.266"/><path class="cls-2" d="M329.421,282.184a14.747,14.747,0,0,1,2.938,20.915A15.343,15.343,0,1,1,319.4,278.442l.147.109.12,2.064-.107.147A13.14,13.14,0,1,0,330.6,301.805c4.124-5.613,3.248-13.263-1.981-17.218l-7.412,10.09-1.688-1.24,8.7-11.849.293-.012a10.057,10.057,0,0,1,.907.608"/><path class="cls-2" d="M69.5,143.519l-.585-2,.09-.162a11.244,11.244,0,0,0,8.517-5.878,8.7,8.7,0,0,0,1.24-5.648,5.157,5.157,0,0,0-2.658-3.915,4.556,4.556,0,0,0-1.1-.442,6.216,6.216,0,0,0-1.053-.176,3.675,3.675,0,0,0-1.095.108q-.6.141-1.067.294a6.29,6.29,0,0,0-1.121.531q-.656.378-1.086.656t-1.145.809q-.716.533-1.144.878t-1.226.976q-.8.633-1.226.978-1.123.887-1.944,1.466a16.962,16.962,0,0,1-2,1.185,8.719,8.719,0,0,1-2.183.816,6.893,6.893,0,0,1-2.221.063,6.358,6.358,0,0,1-2.352-.782,6.984,6.984,0,0,1-3.61-5.045,10.3,10.3,0,0,1,1.4-7.033,11.545,11.545,0,0,1,8.285-5.982l.16.089.482,2-.1.183a9.45,9.45,0,0,0-6.85,4.816,7.914,7.914,0,0,0-1.115,5.092,4.678,4.678,0,0,0,2.424,3.585,4.327,4.327,0,0,0,1.957.574,4.817,4.817,0,0,0,2.1-.435,13.581,13.581,0,0,0,2.048-1.09q.945-.615,2.262-1.661.343-.286,1.28-1.027l1.332-1.051q.4-.311,1.266-.955a15.923,15.923,0,0,1,1.351-.92q.481-.276,1.306-.72a6.227,6.227,0,0,1,1.385-.583q.561-.138,1.354-.293a4.457,4.457,0,0,1,1.452-.067,10.351,10.351,0,0,1,1.427.3,6.985,6.985,0,0,1,1.507.629,7.333,7.333,0,0,1,3.831,5.354,11.029,11.029,0,0,1-1.512,7.423,14.729,14.729,0,0,1-4.311,4.864,12.245,12.245,0,0,1-5.595,2.285Z"/><path class="cls-2" d="M84.479,80.15l1.63-1.716,22.06,20.952-1.04,1.095L73.7,98.239,92.392,116l-1.63,1.717L68.7,96.76l1.039-1.094,33.433,2.241Z"/><path class="cls-2" d="M136.427,79.822a17.689,17.689,0,0,1-11.2,6.455A15.912,15.912,0,0,1,119.077,86a15.239,15.239,0,0,1-5.468-2.653,15.712,15.712,0,0,1-4.195-4.771,15.537,15.537,0,0,1-2.166-8.012,15.191,15.191,0,0,1,2.252-7.854,16.934,16.934,0,0,1,6.177-5.947,17.229,17.229,0,0,1,6.2-2.177,15.67,15.67,0,0,1,6.149.281,15.271,15.271,0,0,1,5.457,2.66A16.2,16.2,0,0,1,139.7,68.306a15.07,15.07,0,0,1-.435,6.054A15.916,15.916,0,0,1,136.427,79.822Zm-13.122,4.33A15.063,15.063,0,0,0,135.552,77.1a12.852,12.852,0,0,0,1.879-6.688,14.19,14.19,0,0,0-6.905-11.982,12.761,12.761,0,0,0-6.723-1.719,15.152,15.152,0,0,0-12.247,7.057,12.77,12.77,0,0,0-1.884,6.679,14.19,14.19,0,0,0,6.905,11.982A12.847,12.847,0,0,0,123.305,84.152Z"/><path class="cls-2" d="M184.4,37.5q.5-3.833,3.132-4.374a3.96,3.96,0,0,1,2.362.194l.128.161-.253,1.778-.173.082a2.643,2.643,0,0,0-1.306-.13,1.38,1.38,0,0,0-1,.708,6.35,6.35,0,0,0-.5,1.909L182.947,65.7l-1.5.307L167.823,41.565,164.869,69.4l-1.478.3-14.5-24.121a6.6,6.6,0,0,0-1.162-1.571,1.342,1.342,0,0,0-1.2-.256,2.664,2.664,0,0,0-1.173.637l-.191-.008-.953-1.531.054-.2a3.988,3.988,0,0,1,2.119-1.11q2.729-.558,4.644,2.783L163.34,65.509,166,38.11l2.184-.446,13.176,24.113Z"/><path class="cls-2" d="M229.272,67.463l-2.375-.444L232.1,39.227l-10.129-1.9.4-2.112,22.7,4.252-.395,2.111-10.2-1.91Z"/><path class="cls-2" d="M278.374,54.293l-15.705-6.661-4.624,10.9,12.394,5.256-.821,1.936-12.393-5.256-4.757,11.216,15.7,6.661-.839,1.978-17.927-7.6,11.88-28.009,17.927,7.6Z"/><path class="cls-2" d="M300.926,101.331l-.54,1.712-.184.09a3.652,3.652,0,0,1-2.066-.732,3.442,3.442,0,0,1-1.413-2.131,7.756,7.756,0,0,1,.243-3.4l1.1-4.382L284.875,82.5l-3.937,2.238a7.759,7.759,0,0,1-3.2,1.158,3.512,3.512,0,0,1-2.38-.74,3.724,3.724,0,0,1-1.3-1.817l.037-.2,1.52-.971.176.076a2.118,2.118,0,0,0,.723,1.006,1.674,1.674,0,0,0,1.257.377,6.936,6.936,0,0,0,1.964-.864L304.9,68.651l1.221.925-6.91,27.937a6,6,0,0,0-.262,2.153,1.614,1.614,0,0,0,.668,1.079,1.9,1.9,0,0,0,1.184.437Zm-14.02-20.014,11.716,8.866,4.511-18Z"/><path class="cls-2" d="M328.717,137.155l-1.021,1.478-.2.031a3.726,3.726,0,0,1-1.785-1.345q-1.911-2.656,1.57-5.763l15.21-13.808-25.862,5.975-.894-1.243L329.682,99.8l-18.011,10.076q-4.05,2.316-5.921-.284a3.766,3.766,0,0,1-.724-2.139l.095-.182,1.738-.48.146.124a2.05,2.05,0,0,0,.367,1.137,1.281,1.281,0,0,0,1.27.53,7.791,7.791,0,0,0,2.479-1l22.307-12.6.894,1.244-15.175,24.735,28.274-6.539.894,1.243-19,17.194a8.026,8.026,0,0,0-1.761,2,1.235,1.235,0,0,0,.087,1.353,1.828,1.828,0,0,0,.975.728Z"/></svg>